0
SECTION
2
HEADER
9
$INSUNITS
70
4
9
$ACADVER
1
AC1014
9
$HANDSEED
5
FFFF
0
ENDSEC
0
SECTION
2
TABLES
0
TABLE
2
VPORT
5
8
100
AcDbSymbolTable
0
ENDTAB
0
TABLE
2
LTYPE
5
5
100
AcDbSymbolTable
0
LTYPE
5
14
100
AcDbSymbolTableRecord
100
AcDbLinetypeTableRecord
2
BYBLOCK
70
0
0
LTYPE
5
15
100
AcDbSymbolTableRecord
100
AcDbLinetypeTableRecord
2
BYLAYER
70
0
0
ENDTAB
0
TABLE
2
LAYER
5
2
100
AcDbSymbolTable
70
2
0
LAYER
5
50
100
AcDbSymbolTableRecord
100
AcDbLayerTableRecord
2
0
70
0
6
CONTINUOUS
0
ENDTAB
0
TABLE
2
STYLE
5
3
100
AcDbSymbolTable
70
1
0
STYLE
5
11
100
AcDbSymbolTableRecord
100
AcDbTextStyleTableRecord
2
STANDARD
70
0
0
ENDTAB
0
TABLE
2
VIEW
5
6
100
AcDbSymbolTable
70
0
0
ENDTAB
0
TABLE
2
UCS
5
7
100
AcDbSymbolTable
70
0
0
ENDTAB
0
TABLE
2
APPID
5
9
100
AcDbSymbolTable
70
2
0
APPID
5
12
100
AcDbSymbolTableRecord
100
AcDbRegAppTableRecord
2
ACAD
70
0
0
ENDTAB
0
TABLE
2
DIMSTYLE
5
A
100
AcDbSymbolTable
70
1
0
ENDTAB
0
TABLE
2
BLOCK_RECORD
5
1
100
AcDbSymbolTable
70
1
0
BLOCK_RECORD
5
1F
100
AcDbSymbolTableRecord
100
AcDbBlockTableRecord
2
*MODEL_SPACE
0
BLOCK_RECORD
5
1B
100
AcDbSymbolTableRecord
100
AcDbBlockTableRecord
2
*PAPER_SPACE
0
ENDTAB
0
ENDSEC
0
SECTION
2
BLOCKS
0
BLOCK
5
20
100
AcDbEntity
100
AcDbBlockBegin
2
*MODEL_SPACE
0
ENDBLK
5
21
100
AcDbEntity
100
AcDbBlockEnd
0
BLOCK
5
1C
100
AcDbEntity
100
AcDbBlockBegin
2
*PAPER_SPACE
0
ENDBLK
5
1D
100
AcDbEntity
100
AcDbBlockEnd
0
ENDSEC
0
SECTION
2
ENTITIES
0
LWPOLYLINE
5
100
100
AcDbEntity
8
0
100
AcDbPolyline
90
4
70
1
43
0.0
10
194.00000281631947
20
91.000001713633537
10
180.00000260770321
20
91.000001713633537
10
180.00000260770321
20
77.000001505017281
10
194.00000281631947
20
77.000001505017281
0
LWPOLYLINE
5
101
100
AcDbEntity
8
0
100
AcDbPolyline
90
4
70
1
43
0.0
10
273.00000394880772
20
114.00000169873238
10
259.00000374019146
20
114.00000169873238
10
259.00000374019146
20
100.00000149011612
10
273.00000394880772
20
100.00000149011612
0
LWPOLYLINE
5
102
100
AcDbEntity
8
0
100
AcDbPolyline
90
4
70
1
43
0.0
10
299.00000394880772
20
126.00000169873239
10
285.00000374019146
20
126.00000169873239
10
285.00000374019146
20
112.00000149011613
10
299.00000394880772
20
112.00000149011613
0
LWPOLYLINE
5
103
100
AcDbEntity
8
0
100
AcDbPolyline
90
4
70
1
43
0.0
10
328.00000394880772
20
123.00000169873238
10
314.00000374019146
20
123.00000169873238
10
314.00000374019146
20
109.00000149011612
10
328.00000394880772
20
109.00000149011612
0
LWPOLYLINE
5
104
100
AcDbEntity
8
0
100
AcDbPolyline
90
4
70
1
43
0.0
10
354.00000394880777
20
107.00000169873236
10
340.00000374019152
20
107.00000169873236
10
340.00000374019152
20
93.000001490116105
10
354.00000394880777
20
93.000001490116105
0
LWPOLYLINE
5
105
100
AcDbEntity
8
0
100
AcDbPolyline
90
4
70
1
43
0.0
10
252.00000374019146
20
73.000001698732376
10
252.00000374019146
20
59.000001490116119
10
266.00000394880772
20
59.000001490116119
10
266.00000394880772
20
73.000001698732376
0
LWPOLYLINE
5
106
100
AcDbEntity
8
0
100
AcDbPolyline
90
4
70
1
43
0.0
10
233.00000374019146
20
60.000001698732376
10
233.00000374019146
20
46.000001490116119
10
247.00000394880772
20
46.000001490116119
10
247.00000394880772
20
60.000001698732376
0
LWPOLYLINE
5
107
100
AcDbEntity
8
0
100
AcDbPolyline
90
4
70
1
43
0.0
10
271.00000374019146
20
60.00000169873239
10
271.00000374019146
20
46.000001490116134
10
285.00000394880772
20
46.000001490116134
10
285.00000394880772
20
60.00000169873239
0
LWPOLYLINE
5
108
100
AcDbEntity
8
0
100
AcDbPolyline
90
4
70
1
43
0.0
10
252.00000374019146
20
47.000001698732383
10
252.00000374019146
20
33.000001490116126
10
266.00000394880772
20
33.000001490116126
10
266.00000394880772
20
47.000001698732383
0
LWPOLYLINE
5
109
100
AcDbEntity
8
0
100
AcDbPolyline
90
4
70
1
43
0.0
10
233.00000374019146
20
34.000001698732383
10
233.00000374019146
20
20.000001490116123
10
247.00000394880772
20
20.000001490116123
10
247.00000394880772
20
34.000001698732383
0
LWPOLYLINE
5
110
100
AcDbEntity
8
0
100
AcDbPolyline
90
4
70
1
43
0.0
10
127.00000260770321
20
34.000001713633544
10
127.00000260770321
20
20.000001505017288
10
141.00000281631947
20
20.000001505017288
10
141.00000281631947
20
34.000001713633544
0
LWPOLYLINE
5
111
100
AcDbEntity
8
0
100
AcDbPolyline
90
4
70
1
43
0.0
10
108.00000260770319
20
47.000001713633552
10
108.00000260770319
20
33.000001505017288
10
122.00000281631945
20
33.000001505017288
10
122.00000281631945
20
47.000001713633552
0
LWPOLYLINE
5
112
100
AcDbEntity
8
0
100
AcDbPolyline
90
4
70
1
43
0.0
10
101.00000260770321
20
114.00000171363354
10
101.00000260770321
20
100.00000150501728
10
115.00000281631947
20
100.00000150501728
10
115.00000281631947
20
114.00000171363354
0
LWPOLYLINE
5
113
100
AcDbEntity
8
0
100
AcDbPolyline
90
4
70
1
43
0.0
10
75.000002607703195
20
126.00000171363354
10
75.000002607703195
20
112.00000150501728
10
89.000002816319466
20
112.00000150501728
10
89.000002816319466
20
126.00000171363354
0
LWPOLYLINE
5
114
100
AcDbEntity
8
0
100
AcDbPolyline
90
4
70
1
43
0.0
10
46.000002607703209
20
123.00000171363354
10
46.000002607703209
20
109.00000150501728
10
60.000002816319466
20
109.00000150501728
10
60.000002816319466
20
123.00000171363354
0
LWPOLYLINE
5
115
100
AcDbEntity
8
0
100
AcDbPolyline
90
4
70
1
43
0.0
10
20.000002607703209
20
107.00000171363355
10
20.000002607703209
20
93.000001505017295
10
34.000002816319466
20
93.000001505017295
10
34.000002816319466
20
107.00000171363355
0
LWPOLYLINE
5
116
100
AcDbEntity
8
0
100
AcDbPolyline
90
4
70
1
43
0.0
10
273.00000394880772
20
81.000001490116134
10
273.00000394880772
20
95.00000169873239
10
259.00000374019146
20
95.00000169873239
10
259.00000374019146
20
81.000001490116134
0
LWPOLYLINE
5
117
100
AcDbEntity
8
0
100
AcDbPolyline
90
4
70
1
43
0.0
10
299.00000394880772
20
93.000001490116119
10
299.00000394880772
20
107.00000169873238
10
285.00000374019146
20
107.00000169873238
10
285.00000374019146
20
93.000001490116119
0
LWPOLYLINE
5
118
100
AcDbEntity
8
0
100
AcDbPolyline
90
4
70
1
43
0.0
10
328.00000394880772
20
90.000001490116119
10
328.00000394880772
20
104.00000169873238
10
314.00000374019146
20
104.00000169873238
10
314.00000374019146
20
90.000001490116119
0
LWPOLYLINE
5
119
100
AcDbEntity
8
0
100
AcDbPolyline
90
4
70
1
43
0.0
10
354.00000394880777
20
74.000001490116119
10
354.00000394880777
20
88.000001698732376
10
340.00000374019152
20
88.000001698732376
10
340.00000374019152
20
74.000001490116119
0
LWPOLYLINE
5
120
100
AcDbEntity
8
0
100
AcDbPolyline
90
8
70
1
43
0.0
10
368
20
0
10
5.9999999999999982
20
0
42
-0.41421356237309642
10
0
20
6.0000000000000142
10
2.2204460492503131e-15
20
140.00000000000003
42
-0.41421356237309581
10
6.0000000000000142
20
146
10
368
20
146.00000000000003
42
-0.41421356237308898
10
374
20
140
10
374
20
6
42
-0.41421356237308848
0
LWPOLYLINE
5
121
100
AcDbEntity
8
0
100
AcDbPolyline
90
4
70
1
43
0.0
10
222.00000281631947
20
77.000001505017281
10
222.00000281631947
20
91.000001713633537
10
208.00000260770321
20
91.000001713633537
10
208.00000260770321
20
77.000001505017281
0
LWPOLYLINE
5
122
100
AcDbEntity
8
0
100
AcDbPolyline
90
4
70
1
43
0.0
10
166.00000281631947
20
77.000001505017281
10
166.00000281631947
20
91.000001713633537
10
152.00000260770321
20
91.000001713633537
10
152.00000260770321
20
77.000001505017281
0
CIRCLE
5
123
100
AcDbEntity
8
0
100
AcDbCircle
10
187.0000028014183
20
139.00000207126141
30
0
40
4.0000000596046448
210
0
220
0
230
1
0
CIRCLE
5
124
100
AcDbEntity
8
0
100
AcDbCircle
10
7.0000001192092896
20
139.00000207126141
30
0
40
4.0000000596046448
210
0
220
0
230
1
0
CIRCLE
5
125
100
AcDbEntity
8
0
100
AcDbCircle
10
7.0000001192092896
20
7.0000001192092896
30
0
40
4.0000000596046448
210
0
220
0
230
1
0
CIRCLE
5
126
100
AcDbEntity
8
0
100
AcDbCircle
10
367.00000546872616
20
7.0000001043081284
30
0
40
4.0000000596046448
210
0
220
0
230
1
0
CIRCLE
5
127
100
AcDbEntity
8
0
100
AcDbCircle
10
187.00000281631947
20
7.0000001043081284
30
0
40
4.0000000596046448
210
0
220
0
230
1
0
CIRCLE
5
128
100
AcDbEntity
8
0
100
AcDbCircle
10
367.00000546872616
20
139.00000207126141
30
0
40
4.0000000596046448
210
0
220
0
230
1
0
CIRCLE
5
129
100
AcDbEntity
8
0
100
AcDbCircle
10
187.00000279396772
20
69.000000968575478
30
0
40
1.5000000223517418
210
0
220
0
230
1
0
CIRCLE
5
130
100
AcDbEntity
8
0
100
AcDbCircle
10
306.50000457465649
20
110.00000163912773
30
0
40
1.5000000223517418
210
0
220
0
230
1
0
CIRCLE
5
131
100
AcDbEntity
8
0
100
AcDbCircle
10
255.0000037997961
20
25.00000037252903
30
0
40
1.5000000223517418
210
0
220
0
230
1
0
CIRCLE
5
132
100
AcDbEntity
8
0
100
AcDbCircle
10
117.00000174343586
20
25.000000327825546
30
0
40
1.5000000223517418
210
0
220
0
230
1
0
CIRCLE
5
133
100
AcDbEntity
8
0
100
AcDbCircle
10
67.500001013278961
20
114.00000175833702
30
0
40
1.5000000223517418
210
0
220
0
230
1
0
CIRCLE
5
134
100
AcDbEntity
8
0
100
AcDbCircle
10
22
20
124
30
0
40
1.4999981597066223
210
0
220
0
230
1
0
CIRCLE
5
135
100
AcDbEntity
8
0
100
AcDbCircle
10
22.000000312924385
20
22.000000223517418
30
0
40
1.5000000223517418
210
0
220
0
230
1
0
CIRCLE
5
136
100
AcDbEntity
8
0
100
AcDbCircle
10
352.00000527501106
20
124.00000184774399
30
0
40
1.5000000223517418
210
0
220
0
230
1
0
CIRCLE
5
137
100
AcDbEntity
8
0
100
AcDbCircle
10
352.0000052601099
20
22.000000327825546
30
0
40
1.5000000223517418
210
0
220
0
230
1
0
ENDSEC
0
SECTION
2
OBJECTS
0
DICTIONARY
5
C
100
AcDbDictionary
3
ACAD_GROUP
350
D
3
ACAD_MLINESTYLE
350
17
0
DICTIONARY
5
D
100
AcDbDictionary
0
DICTIONARY
5
1A
330
C
100
AcDbDictionary
0
DICTIONARY
5
17
100
AcDbDictionary
0
ENDSEC
0
EOF
