0
SECTION
2
HEADER
9
$INSUNITS
70
4
9
$ACADVER
1
AC1014
9
$HANDSEED
5
FFFF
0
ENDSEC
0
SECTION
2
TABLES
0
TABLE
2
VPORT
5
8
100
AcDbSymbolTable
0
ENDTAB
0
TABLE
2
LTYPE
5
5
100
AcDbSymbolTable
0
LTYPE
5
14
100
AcDbSymbolTableRecord
100
AcDbLinetypeTableRecord
2
BYBLOCK
70
0
0
LTYPE
5
15
100
AcDbSymbolTableRecord
100
AcDbLinetypeTableRecord
2
BYLAYER
70
0
0
ENDTAB
0
TABLE
2
LAYER
5
2
100
AcDbSymbolTable
70
2
0
LAYER
5
50
100
AcDbSymbolTableRecord
100
AcDbLayerTableRecord
2
0
70
0
6
CONTINUOUS
0
ENDTAB
0
TABLE
2
STYLE
5
3
100
AcDbSymbolTable
70
1
0
STYLE
5
11
100
AcDbSymbolTableRecord
100
AcDbTextStyleTableRecord
2
STANDARD
70
0
0
ENDTAB
0
TABLE
2
VIEW
5
6
100
AcDbSymbolTable
70
0
0
ENDTAB
0
TABLE
2
UCS
5
7
100
AcDbSymbolTable
70
0
0
ENDTAB
0
TABLE
2
APPID
5
9
100
AcDbSymbolTable
70
2
0
APPID
5
12
100
AcDbSymbolTableRecord
100
AcDbRegAppTableRecord
2
ACAD
70
0
0
ENDTAB
0
TABLE
2
DIMSTYLE
5
A
100
AcDbSymbolTable
70
1
0
ENDTAB
0
TABLE
2
BLOCK_RECORD
5
1
100
AcDbSymbolTable
70
1
0
BLOCK_RECORD
5
1F
100
AcDbSymbolTableRecord
100
AcDbBlockTableRecord
2
*MODEL_SPACE
0
BLOCK_RECORD
5
1B
100
AcDbSymbolTableRecord
100
AcDbBlockTableRecord
2
*PAPER_SPACE
0
ENDTAB
0
ENDSEC
0
SECTION
2
BLOCKS
0
BLOCK
5
20
100
AcDbEntity
100
AcDbBlockBegin
2
*MODEL_SPACE
0
ENDBLK
5
21
100
AcDbEntity
100
AcDbBlockEnd
0
BLOCK
5
1C
100
AcDbEntity
100
AcDbBlockBegin
2
*PAPER_SPACE
0
ENDBLK
5
1D
100
AcDbEntity
100
AcDbBlockEnd
0
ENDSEC
0
SECTION
2
ENTITIES
0
LWPOLYLINE
5
100
100
AcDbEntity
8
0
100
AcDbPolyline
90
8
70
1
43
0.0
10
368.00000000000006
20
0
10
6.0000000000000693
20
0
42
-0.41421356237309659
10
6.9944050551384862e-14
20
6.0000000000000142
10
7.4384942649885488e-14
20
140.00000000000003
42
-0.41421356237309576
10
6.0000000000000853
20
146
10
368.00000000000006
20
146
42
-0.4142135623730942
10
374.00000000000006
20
140
10
374.00000000000006
20
6
42
-0.41421356237309365
0
LWPOLYLINE
5
101
100
AcDbEntity
8
0
100
AcDbPolyline
90
4
70
1
43
0.0
10
37.000000476837158
20
110.00000156462193
10
17.000000178813934
20
110.00000156462193
10
17.000000178813934
20
90.000001266598701
10
37.000000476837158
20
90.000001266598701
0
LWPOLYLINE
5
102
100
AcDbEntity
8
0
100
AcDbPolyline
90
4
70
1
43
0.0
10
63.000000864267349
20
126.0000018030405
10
43.000000566244125
20
126.0000018030405
10
43.000000566244125
20
106.00000150501728
10
63.000000864267349
20
106.00000150501728
0
LWPOLYLINE
5
103
100
AcDbEntity
8
0
100
AcDbPolyline
90
4
70
1
43
0.0
10
92.000001296401024
20
129.00000184774399
10
72.0000009983778
20
129.00000184774399
10
72.0000009983778
20
109.00000154972076
10
92.000001296401024
20
109.00000154972076
0
LWPOLYLINE
5
104
100
AcDbEntity
8
0
100
AcDbPolyline
90
4
70
1
43
0.0
10
118.00000168383121
20
117.00000166893005
10
98.000001385807991
20
117.00000166893005
10
98.000001385807991
20
97.00000137090683
10
118.00000168383121
20
97.00000137090683
0
LWPOLYLINE
5
105
100
AcDbEntity
8
0
100
AcDbPolyline
90
4
70
1
43
0.0
10
169.00000244379044
20
94.000001326203346
10
149.00000214576721
20
94.000001326203346
10
149.00000214576721
20
74.000001028180122
10
169.00000244379044
20
74.000001028180122
0
LWPOLYLINE
5
106
100
AcDbEntity
8
0
100
AcDbPolyline
90
4
70
1
43
0.0
10
197.00000286102295
20
94.000001326203346
10
177.00000256299973
20
94.000001326203346
10
177.00000256299973
20
74.000001028180122
10
197.00000286102295
20
74.000001028180122
0
LWPOLYLINE
5
107
100
AcDbEntity
8
0
100
AcDbPolyline
90
4
70
1
43
0.0
10
225.00000327825546
20
94.000001326203346
10
205.00000298023224
20
94.000001326203346
10
205.00000298023224
20
74.000001028180122
10
225.00000327825546
20
74.000001028180122
0
LWPOLYLINE
5
108
100
AcDbEntity
8
0
100
AcDbPolyline
90
8
70
1
43
0.0
10
125.00000178813934
20
50.000000670552254
10
105.00000149011612
20
50.000000670552254
10
105.00000149011612
20
30.00000037252903
10
124.00000177323818
20
30.00000037252903
10
124.00000177323818
20
17.000000178813934
10
144.00000207126141
20
17.000000178813934
10
144.00000207126141
20
37.000000476837158
10
125.00000178813934
20
37.000000476837158
0
LWPOLYLINE
5
109
100
AcDbEntity
8
0
100
AcDbPolyline
90
4
70
1
43
0.0
10
256.00000374019146
20
78.000001087784767
10
276.00000403821468
20
78.000001087784767
10
276.00000403821468
20
117.00000166893005
10
256.00000374019163
20
117.00000166893005
0
LWPOLYLINE
5
110
100
AcDbEntity
8
0
100
AcDbPolyline
90
4
70
1
43
0.0
10
302.00000442564487
20
129.00000184774399
10
282.00000412762165
20
129.00000184774399
10
282.00000412762165
20
90.000001266598701
10
302.00000442564487
20
90.000001266598701
0
LWPOLYLINE
5
111
100
AcDbEntity
8
0
100
AcDbPolyline
90
4
70
1
43
0.0
10
331.00000485777855
20
126.0000018030405
10
311.00000455975533
20
126.0000018030405
10
311.00000455975533
20
87.000001221895218
10
331.00000485777855
20
87.000001221895218
0
LWPOLYLINE
5
112
100
AcDbEntity
8
0
100
AcDbPolyline
90
4
70
1
43
0.0
10
357.00000524520874
20
110.00000156462193
10
337.00000494718552
20
110.00000156462193
10
337.00000494718552
20
71.000000983476639
10
357.00000524520874
20
71.000000983476639
0
LWPOLYLINE
5
113
100
AcDbEntity
8
0
100
AcDbPolyline
90
18
70
1
43
0.0
10
269.00000393390656
20
76.000001057982445
10
249.00000363588333
20
76.000001057982445
10
249.00000363588333
20
63.000000864267349
10
230.00000335276127
20
63.000000864267349
10
230.00000335276127
20
43.000000566244125
10
248.00000363588333
20
43.000000566244125
42
-0.41421356237308982
10
249.00000363588333
20
42.000000566244125
10
249.00000363588333
20
38.000000476837158
42
-0.41421356237308854
10
248.00000363588333
20
37.000000476837158
10
230.00000335276127
20
37.000000476837158
10
230.00000335276127
20
17.000000178813934
10
250.00000365078449
20
17.000000178813934
10
250.00000365078449
20
30.00000037252903
10
269.00000393390656
20
30.00000037252903
10
269.00000393390656
20
43.000000566244125
10
288.00000421702862
20
43.000000566244125
10
288.00000421702862
20
63.000000864267349
10
269.00000393390656
20
63.000000864267349
0
CIRCLE
5
114
100
AcDbEntity
8
0
100
AcDbCircle
10
7.0000001043081284
20
139.00000207126141
30
0
40
4.0999999999999996
210
0
220
0
230
1
0
CIRCLE
5
115
100
AcDbEntity
8
0
100
AcDbCircle
10
7.0000001043081284
20
7.0000001043081284
30
0
40
4.0999999999999996
210
0
220
0
230
1
0
CIRCLE
5
116
100
AcDbEntity
8
0
100
AcDbCircle
10
367.00000546872616
20
7.0000001043081284
30
0
40
4.0999999999999996
210
0
220
0
230
1
0
CIRCLE
5
117
100
AcDbEntity
8
0
100
AcDbCircle
10
367.00000546872616
20
139.00000207126141
30
0
40
4.0999999999999996
210
0
220
0
230
1
0
CIRCLE
5
118
100
AcDbEntity
8
0
100
AcDbCircle
10
187.0000028014183
20
139.00000208616257
30
0
40
4.0999999999999996
210
0
220
0
230
1
0
CIRCLE
5
119
100
AcDbEntity
8
0
100
AcDbCircle
10
187.00000281631947
20
7.0000001192092896
30
0
40
4.0999999999999996
210
0
220
0
230
1
0
ENDSEC
0
SECTION
2
OBJECTS
0
DICTIONARY
5
C
100
AcDbDictionary
3
ACAD_GROUP
350
D
3
ACAD_MLINESTYLE
350
17
0
DICTIONARY
5
D
100
AcDbDictionary
0
DICTIONARY
5
1A
330
C
100
AcDbDictionary
0
DICTIONARY
5
17
100
AcDbDictionary
0
ENDSEC
0
EOF
