0
SECTION
2
HEADER
9
$INSUNITS
70
4
9
$ACADVER
1
AC1014
9
$HANDSEED
5
FFFF
0
ENDSEC
0
SECTION
2
TABLES
0
TABLE
2
VPORT
5
8
100
AcDbSymbolTable
0
ENDTAB
0
TABLE
2
LTYPE
5
5
100
AcDbSymbolTable
0
LTYPE
5
14
100
AcDbSymbolTableRecord
100
AcDbLinetypeTableRecord
2
BYBLOCK
70
0
0
LTYPE
5
15
100
AcDbSymbolTableRecord
100
AcDbLinetypeTableRecord
2
BYLAYER
70
0
0
ENDTAB
0
TABLE
2
LAYER
5
2
100
AcDbSymbolTable
70
2
0
LAYER
5
50
100
AcDbSymbolTableRecord
100
AcDbLayerTableRecord
2
0
70
0
6
CONTINUOUS
0
ENDTAB
0
TABLE
2
STYLE
5
3
100
AcDbSymbolTable
70
1
0
STYLE
5
11
100
AcDbSymbolTableRecord
100
AcDbTextStyleTableRecord
2
STANDARD
70
0
0
ENDTAB
0
TABLE
2
VIEW
5
6
100
AcDbSymbolTable
70
0
0
ENDTAB
0
TABLE
2
UCS
5
7
100
AcDbSymbolTable
70
0
0
ENDTAB
0
TABLE
2
APPID
5
9
100
AcDbSymbolTable
70
2
0
APPID
5
12
100
AcDbSymbolTableRecord
100
AcDbRegAppTableRecord
2
ACAD
70
0
0
ENDTAB
0
TABLE
2
DIMSTYLE
5
A
100
AcDbSymbolTable
70
1
0
ENDTAB
0
TABLE
2
BLOCK_RECORD
5
1
100
AcDbSymbolTable
70
1
0
BLOCK_RECORD
5
1F
100
AcDbSymbolTableRecord
100
AcDbBlockTableRecord
2
*MODEL_SPACE
0
BLOCK_RECORD
5
1B
100
AcDbSymbolTableRecord
100
AcDbBlockTableRecord
2
*PAPER_SPACE
0
ENDTAB
0
ENDSEC
0
SECTION
2
BLOCKS
0
BLOCK
5
20
100
AcDbEntity
100
AcDbBlockBegin
2
*MODEL_SPACE
0
ENDBLK
5
21
100
AcDbEntity
100
AcDbBlockEnd
0
BLOCK
5
1C
100
AcDbEntity
100
AcDbBlockBegin
2
*PAPER_SPACE
0
ENDBLK
5
1D
100
AcDbEntity
100
AcDbBlockEnd
0
ENDSEC
0
SECTION
2
ENTITIES
0
LWPOLYLINE
5
100
100
AcDbEntity
8
0
100
AcDbPolyline
90
4
70
1
43
0.0
10
7.0000000000000009
20
-3.9999999999999956
10
-7.0000000000000009
20
-3.9999999999999947
10
-7.0000000000000009
20
-18
10
7.0000000000000009
20
-18
0
LWPOLYLINE
5
101
100
AcDbEntity
8
0
100
AcDbPolyline
90
4
70
1
43
0.0
10
35.000000000000007
20
-18
10
21.000000000000007
20
-18
10
21.000000000000007
20
-3.9999999999999947
10
35.000000000000007
20
-3.9999999999999947
0
LWPOLYLINE
5
102
100
AcDbEntity
8
0
100
AcDbPolyline
90
4
70
1
43
0.0
10
-20.999999999999972
20
-18
10
-34.999999999999972
20
-18
10
-34.999999999999972
20
-3.9999999999999947
10
-20.999999999999972
20
-3.9999999999999947
0
LWPOLYLINE
5
103
100
AcDbEntity
8
0
100
AcDbPolyline
90
4
70
1
43
0.0
10
-71.999999999999972
20
-40.999999999999986
10
-86
20
-40.999999999999986
10
-86
20
-26.999999999999986
10
-71.999999999999972
20
-26.999999999999986
0
LWPOLYLINE
5
104
100
AcDbEntity
8
0
100
AcDbPolyline
90
4
70
1
43
0.0
10
-98
20
-38.999999999999993
10
-112
20
-38.999999999999993
10
-112
20
-53
10
-98
20
-53
0
LWPOLYLINE
5
105
100
AcDbEntity
8
0
100
AcDbPolyline
90
4
70
1
43
0.0
10
-127
20
-49.999999999999993
10
-141
20
-49.999999999999993
10
-141
20
-35.999999999999986
10
-127
20
-35.999999999999986
0
LWPOLYLINE
5
106
100
AcDbEntity
8
0
100
AcDbPolyline
90
4
70
1
43
0.0
10
-153
20
-33.999999999999993
10
-167
20
-33.999999999999993
10
-167
20
-19.999999999999993
10
-153
20
-19.999999999999993
0
LWPOLYLINE
5
107
100
AcDbEntity
8
0
100
AcDbPolyline
90
4
70
1
43
0.0
10
-64.999999999999986
20
26.000000000000021
10
-79
20
26.000000000000021
10
-79
20
40.000000000000028
10
-64.999999999999986
20
40.000000000000028
0
LWPOLYLINE
5
108
100
AcDbEntity
8
0
100
AcDbPolyline
90
4
70
1
43
0.0
10
-60.000000000000007
20
38.999999999999993
10
-46.000000000000007
20
38.999999999999993
10
-46.000000000000007
20
53
10
-60.000000000000007
20
53
0
LWPOLYLINE
5
109
100
AcDbEntity
8
0
100
AcDbPolyline
90
4
70
1
43
0.0
10
60.000000000000007
20
38.999999999999993
10
46.000000000000007
20
38.999999999999993
10
46.000000000000007
20
53
10
60.000000000000007
20
53
0
LWPOLYLINE
5
110
100
AcDbEntity
8
0
100
AcDbPolyline
90
4
70
1
43
0.0
10
79.000000000000028
20
26.000000000000021
10
65.000000000000028
20
26.000000000000021
10
65.000000000000028
20
40.000000000000028
10
79.000000000000028
20
40.000000000000028
0
LWPOLYLINE
5
111
100
AcDbEntity
8
0
100
AcDbPolyline
90
4
70
1
43
0.0
10
60.000000000000007
20
13.000000000000016
10
46.000000000000007
20
13.000000000000016
10
46.000000000000007
20
27.000000000000021
10
60.000000000000007
20
27.000000000000021
0
LWPOLYLINE
5
112
100
AcDbEntity
8
0
100
AcDbPolyline
90
4
70
1
43
0.0
10
79.000000000000028
20
9.9920072216264089e-15
10
65.000000000000028
20
8.8817841970012523e-15
10
65.000000000000028
20
14.000000000000012
10
79.000000000000028
20
14.000000000000012
0
LWPOLYLINE
5
113
100
AcDbEntity
8
0
100
AcDbPolyline
90
4
70
1
43
0.0
10
98
20
13.000000000000016
10
84.000000000000028
20
13.000000000000016
10
84.000000000000028
20
27.000000000000021
10
98
20
27.000000000000021
0
LWPOLYLINE
5
114
100
AcDbEntity
8
0
100
AcDbPolyline
90
4
70
1
43
0.0
10
86.000000000000014
20
-21.999999999999986
10
72.000000000000028
20
-21.999999999999986
10
72.000000000000028
20
-7.9999999999999805
10
86.000000000000014
20
-7.9999999999999805
0
LWPOLYLINE
5
115
100
AcDbEntity
8
0
100
AcDbPolyline
90
4
70
1
43
0.0
10
86.000000000000014
20
-40.999999999999986
10
72.000000000000028
20
-40.999999999999986
10
72.000000000000028
20
-26.999999999999986
10
86.000000000000014
20
-26.999999999999986
0
LWPOLYLINE
5
116
100
AcDbEntity
8
0
100
AcDbPolyline
90
4
70
1
43
0.0
10
112
20
-53
10
98
20
-53
10
98
20
-38.999999999999993
10
112
20
-38.999999999999993
0
LWPOLYLINE
5
117
100
AcDbEntity
8
0
100
AcDbPolyline
90
4
70
1
43
0.0
10
112.00000000000001
20
-33.999999999999993
10
97.999999999999986
20
-33.999999999999993
10
97.999999999999986
20
-19.999999999999993
10
112.00000000000001
20
-19.999999999999993
0
LWPOLYLINE
5
118
100
AcDbEntity
8
0
100
AcDbPolyline
90
4
70
1
43
0.0
10
141
20
-49.999999999999993
10
126.99999999999997
20
-49.999999999999993
10
126.99999999999997
20
-35.999999999999986
10
141
20
-35.999999999999986
0
LWPOLYLINE
5
119
100
AcDbEntity
8
0
100
AcDbPolyline
90
4
70
1
43
0.0
10
140.99999999999997
20
-16.999999999999986
10
127
20
-16.999999999999986
10
127
20
-30.999999999999986
10
140.99999999999997
20
-30.999999999999986
0
LWPOLYLINE
5
120
100
AcDbEntity
8
0
100
AcDbPolyline
90
4
70
1
43
0.0
10
167
20
-33.999999999999993
10
153
20
-33.999999999999993
10
153
20
-19.999999999999993
10
167
20
-19.999999999999993
0
LWPOLYLINE
5
121
100
AcDbEntity
8
0
100
AcDbPolyline
90
4
70
1
43
0.0
10
153
20
-0.99999999999998868
10
167
20
-0.99999999999998757
10
167
20
-14.999999999999991
10
153
20
-14.999999999999991
0
LWPOLYLINE
5
122
100
AcDbEntity
8
0
100
AcDbPolyline
90
8
70
1
43
0.0
10
183.20000000000005
20
61.200000000000031
10
183.20000000000005
20
-61.199999999999989
42
-0.41421356237309243
10
175.20000000000005
20
-69.200000000000003
10
-175.2000000000001
20
-69.199999999999989
42
-0.41421356237308754
10
-183.19999999999999
20
-61.199999999999989
10
-183.19999999999999
20
61.200000000000031
42
-0.41421356237309209
10
-175.20000000000005
20
69.200000000000031
10
175.20000000000005
20
69.200000000000031
42
-0.41421356237309243
0
CIRCLE
5
123
100
AcDbEntity
8
0
100
AcDbCircle
10
175.19999999999999
20
61.199999999999989
30
0
40
2.5999999999999868
210
0
220
0
230
1
0
CIRCLE
5
124
100
AcDbEntity
8
0
100
AcDbCircle
10
2.0278046111874999e-16
20
61.200000000000038
30
0
40
2.6000000000000005
210
0
220
0
230
1
0
CIRCLE
5
125
100
AcDbEntity
8
0
100
AcDbCircle
10
-175.19999999999996
20
61.199999999999982
30
0
40
2.6000000000000116
210
0
220
0
230
1
0
CIRCLE
5
126
100
AcDbEntity
8
0
100
AcDbCircle
10
-175.19999999999996
20
-61.199999999999939
30
0
40
2.6000000000000139
210
0
220
0
230
1
0
CIRCLE
5
127
100
AcDbEntity
8
0
100
AcDbCircle
10
-3.512157586576751e-14
20
-61.199999999999989
30
0
40
2.5999999999999983
210
0
220
0
230
1
0
CIRCLE
5
128
100
AcDbEntity
8
0
100
AcDbCircle
10
175.19999999999999
20
-61.19999999999996
30
0
40
2.5999999999999974
210
0
220
0
230
1
0
ENDSEC
0
SECTION
2
OBJECTS
0
DICTIONARY
5
C
100
AcDbDictionary
3
ACAD_GROUP
350
D
3
ACAD_MLINESTYLE
350
17
0
DICTIONARY
5
D
100
AcDbDictionary
0
DICTIONARY
5
1A
330
C
100
AcDbDictionary
0
DICTIONARY
5
17
100
AcDbDictionary
0
ENDSEC
0
EOF
